<svg xmlns="http://www.w3.org/2000/svg" id="Layer_1" version="1.1" viewBox="422.74 351.46 235.16 377.2">
  <!-- Generator: Adobe Illustrator 29.4.0, SVG Export Plug-In . SVG Version: 2.1.0 Build 152)  -->
  <defs>
    <style>
      .st0 {
        fill: #5d3999;
      }
    </style>
  </defs>
  <path class="st0" d="M540.32,351.46h0c-64.67,0-117.58,52.91-117.58,117.58v142.04c0,64.67,52.91,117.58,117.58,117.58h0c64.67,0,117.58-52.91,117.58-117.58v-142.04c0-64.67-52.91-117.58-117.58-117.58ZM572.42,431.71c2.74.12,9.33,1.88,11.39,3.54,1.98,1.59,1.11,3.88,1.97,4.87.66.74,1.85,1.12,2.66,1.74.41.32.53.9,1.05,1.22.69.43,2.92,0,4.16.31,4.16,1.05,6.34,4.54,7.65,8.36,1.72,5.03,3.4,13.34-.35,17.81-1.19,1.42-3.93.15-4.69-1.02-.25-.37-.79-7.44-1.08-8.79-1.22-5.5-5.09-12.23-11.23-13.07-1.85-.26-2.82.59-4.53.9-3.15-5.41-9.05-10.59-15.71-9.32l-2.79-1.98c2.89-2.96,7.33-4.77,11.51-4.56ZM580.65,495.1c-1.57,3.25-3.79,6.66-6.46,9.62-2.55,2.84-5.48,5.28-8.73,6.79-4.68,2.23-9.89,2.52-15.23-.66,2.05-2.01,4.37-3.41,6.25-5.67.35-.41.7-.87,1.06-1.34.48-.68.95-1.41,1.41-2.19,2.17-3.64,3.89-8.13,4.49-11.76.77-4.74-.66-5.32,3.31-9.35,3.54-3.56,11.51-6.15,16.25-3.83,2.01,1.01,3.85,6.08,5.63,2.61,1.3-2.57.58-3.79,3.48-6.04,6.42-5.01,7.95,7.7,7.41,11.63-.21,1.57-.56,3.1-1.03,4.64-.33,1.05-.72,2.09-1.18,3.12-.25.56-.52,1.12-.79,1.68-2.46,4.91-6.19,9.35-10.58,12.77-4.16,3.27-8.94,5.59-13.85,6.48-.56.1-4.37.7-4.47.29,1.45-1.3,3.08-2.32,4.55-3.62,1.59-1.45,3.21-3.15,4.66-4.99,1.7-2.17,3.19-4.51,4.18-6.85.58-1.35,1.35-2.59-.35-3.31ZM533.08,505.3c-1.61-1.66-2.8-3.76-3.55-6.03-.4-1.22-.68-2.48-.81-3.76-.03-.27-.05-.54-.07-.81-.21-3.12.41-6.24,1.93-8.78l.78-1.3,1.75-2.94-.62-.65c-1.34.81-2.5,2.09-3.43,3.59-.89,1.43-1.59,3.07-2.1,4.7-.44,1.38-.73,2.76-.88,4.01-.03.21-.01.93-.01,1.65,0,.81,0,1.59-.12,1.61-.25-.25-.5-.5-.73-.77-.37-.39-.7-.8-1.01-1.21-.73-.96-1.36-1.95-1.89-3-.9-1.77-1.51-3.67-1.87-5.62-.09-.45-.16-.92-.21-1.37-1.1-8.94,2.87-18.91,9.3-24.95,4.89-4.58,12.28-7.13,18.16-2.62,2.46,1.89,4.16,6.19,3.1,9.19-.35,1-1.1,1.74-1.41,2.58-.6,1.67,2.29,2.19,3.27,2.71,5.81,3.03,7.94,9.17,7.48,15.64h0c-.33,4.93-2.17,10.03-5.02,14.07-3.48,4.97-8.49,8.34-14.12,7.85-.43-.04-.86-.09-1.3-.19-.4-.07-.8-.16-1.2-.28-.33-.09-.65-.2-.96-.33-1.73-.65-3.22-1.69-4.46-2.99ZM554.42,462.38c-.27-2.18-1.53-2.43.64-4.1,4.56-3.52,12.24-4,16.72-.07.67.59.96,1.86,1.45,2.21.62.45,1.39-.27,2.15.19,2.57,1.54,4.33,5.59,3.68,8.53-.99,4.39-3.43,3.24-6.88,4.3-3.87,1.18-6.7,3.11-9.24,6.29-.74-.97-.72-2.22-1.17-3.32-1.64-3.98-4.39-6.21-8.15-8.21.63-1.94,1.06-3.79.79-5.84ZM578.1,458.39c-2.52-1.44-4.75-3.4-7.37-4.7-6.43-3.21-13.16-1.39-18.79,2.49-.65.01-1.46-1.26-2.08-1.71-2.23-1.59-4.32-2.34-6.93-2.97,1.83-2.51,3.59-4.96,4.36-8.03.66-2.63-.38-2.97,2.79-4.33,2.83-1.22,7.48-1.18,9.99.75.73.57,1.26,2.07,1.84,2.25.39.11,2.31-.59,2.99-.66,6.14-.69,12.1,6.87,13.27,12.35.15.68.66,4.34-.07,4.54ZM539.64,450.55c-.95,1.13-2.38.87-3.56,1.28-9.54,3.31-15.27,11.57-18.53,20.81-.76-3.52-.24-8.24.76-11.73,2.14-7.58,8.64-15.15,15.17-19.46,2.36-1.56,10.09-5.86,10.57-.48.22,2.34-2.91,7.82-4.41,9.59ZM582.57,466.23c-.18-1.23-.94-2.57-1.1-3.6-.24-1.55.72-4.21.55-6.24-.15-2.02-1.75-4.39-.3-6.01.73-.8,2.29-.34,3.15.03,6.81,2.91,7.64,12.23,7.81,18.64-2.85,1.27-4.95,3.26-6.32,6.11-1.33-1.38-3.08-2.21-4.91-2.64.8-2.12,1.46-4,1.11-6.29ZM526.6,438.87c3.27-6.67,9.95-13.55,17.46-14.92,4.06-.73,10.4-.66,13.79,1.91,1.25.95,3.35,4.35,2.59,5.83-.25.49-3.31,3.17-3.8,3.36-.6.22-3.46-.13-4.6.04-1.17.16-5.03,1.71-5.31,1.69-.86-.07-2.38-1.45-3.59-1.81-4.75-1.39-14.68,5.06-17.69,8.71-.41-1.41.53-3.54,1.16-4.81ZM504.64,436.99c5.52-7.76,14.76-10.38,16.65,1.54.22,1.39.3,8.56-.07,9.64-.56,1.59-3.43,5.02-4.44,7.02-3.34,6.65-3.75,15.37-1.78,22.44.59,2.1,2.28,4.38,1.21,6.63-1.17-1.14-2.63-1.94-3.88-3.01-12.93-10.94-18.03-29.75-7.69-44.26ZM494.23,468.42c5.5,2.72,5.83,4.33,9.34,8.56,2.22,2.67,4.61,5.33,7.27,7.64.9.8,1.83,1.54,2.8,2.23,1.02.74,3.07,1.54,3.83,2.36.36.37.85,2.32,1.2,3.02.25.49.5.96.77,1.41,1.81,3.18,3.56,4.85,5.95,7.19.52.52,1.08,1.08,1.67,1.69.6.6,1.06,2.01,1.57,2.74.33.49,2.63,3.23,2.48,3.45-3.52.4-6.88,1.66-10.23,2.88-2.07.76-4.13,1.5-6.24,2.02-1.81.45-3.67.73-5.59.69-4.78-.08-10.71-1.97-14.67-4.7-2.01-1.41-4.94-4.37-7.07-7.67-1.58-2.44-2.71-5.05-2.68-7.32.01-.9.2-1.74.61-2.51.43-.81,2.01-2.02,1.75-3.11-.04-.23-.74-1.14-1.58-2.25-1.18-1.51-2.67-3.39-3.1-4.25-4.44-8.44,1.94-18.96,11.92-14.07ZM486.08,596.87c-1.54-5.42-6.76-10.87-8.04-16.25-1.02-4.12.7-7.85,1.08-12.17.16-4.57-.23-9.72-3.8-14.25-2.64-2.83-6.92-5.78-9.04-8.82-2.09-2.75-3.12-5.52-3.74-8.28-1.49-5.25-.1-10.38,3.19-15.02,1.04-1.53,2.9-4.27,4.61-.61,2.05,5.23,4.55,10.25,8.44,15.32,2.65,3.46,6.47,6.96,8.27,10.63,1.07,2.18,1.51,4.39,1.62,6.51.17,3.37-.37,6.71-.56,10.06-.52,7.63.53,15.19,1.58,22.73.75,5.65,3.05,12.93-.03,17.88l-.03.03c-1.93,1.41-3.1-7.17-3.54-7.76ZM489.49,629.32c-.66-4.19-.45-8.76-.11-12.87.33-3.34,1.06-6.2,1.7-9.42l.78-6.62,6.19-52.2c3.6-7.43,7.36-4.76,1.57,24.26-1.87,9.35-4.38,18.75-5.49,28.21-.27,2.19-.45,4.37-.53,6.56.07,1.55.04,2.82.7,2.83,1.01-1.04,1.16-2.71,1.61-4.23,3.11-13.82,7.75-27.83,13.19-41.45,3.68-9.21,7.73-18.23,11.92-26.86,4.04-7.35,5.91-12.29,9.95-18.85.5-.81,1.01-1.65,1.59-2.52.17-.2.33-.41.49-.6.17-.19.32-.37.48-.53.93-1.02,1.91-1.73,3.08-2.02.56-.12,1.08-.08,1.5.09,1.09.37,1.67,1.54,1.45,3.08l1.97-3.26c-.21,1.4-1.99,4.45-3.55,6.82-.04.08-.11.16-.15.23-.66,1.01-1.26,1.86-1.65,2.38-3.51,4.57-4.68,6.15-7.53,11.11-1.06,1.87-2.06,3.81-2.92,5.74-5.69,13.59-11.62,27.01-16.63,40.75-3.36,9.21-6.31,18.56-8.49,28.21-1.04,4.34-1.85,8.41-2.38,12.95-.5,3.44-.62,8-1.66,10.63-2.15,4.86-6.46,1.91-7.09-2.4ZM575.7,551.96c-.19.69-.36,1.37-.53,2.05-.58,2.3-1.17,4.53-1.99,6.74-.15.39-.28.76-.45,1.16-.45,1.26-1.01,2.48-1.71,3.64-.69,1.24-1.5,2.4-2.42,3.51-9.42-1.51-18.45-2.29-23.74.37-.21.11-.43.23-.62.33-1.41.84-2.52,1.94-3.23,3.37v14.24c-1.06.62-2.11,1.3-3.15,1.99-3.14,2.09-6.14,4.42-9.02,7.01-2.74,2.42-5.61,5.12-7.94,8.01-1.41,1.75-2.62,3.57-3.48,5.43-2.38,4.82-3.95,10.06-5.43,15.27-.93,3.22-1.77,6.22-2.86,9.33-.5,1.58-1.33,3.49-2.6,4.53-.39.32-.81.54-1.29.66-.43.12-.9.13-1.41.03-1.9-.32-4.22-1.59-5.26-3.36-.39-.66-.6-1.42-.52-2.21.03-.6.21-1.24.48-1.9.27-.66.62-1.33,1.04-2.02,3.19-5.06,6.75-9.95,9.13-15.44,0-.01.03-.04.03-.07,1.45-3.2,2.19-6.5,3.06-9.84,3.11-11.36,11.55-29.13,21.08-36.32,2.86-2.07,5.29-3,8.86-4.97,1.53-.85,3.22-1.82,4.86-2.79,1.37-.78,2.7-1.55,3.96-2.26,4.86-2.94,9.69-3.99,14.41-6.8,1.95-.9,7.16-5.75,9.78-5.75.23,0,.43.04.6.11.31.12.54.35.7.69v.07c.43,1.06.2,3.15-.32,5.19ZM605.81,531.57h-.01c-1.5.89-4.36,1.63-6.06,1.26-.36-.08-.93-.37-1.49-.65-.89-.47-1.81-.93-2.71-1.04-1.22-.17-2.23.39-2.78,1.51-.7,1.47.09,2.62.6,3.32.49.69.6.94.4,1.46-.29.88-.81,1.62-1.57,2.26-3.33,2.82-10.47,2.71-16.02,1.67-1.49-.28-2.94-.64-4.08-1.04-1.67-.56-3.15-1.14-4.53-1.77-10.58-4.72-17.52-12.17-21.23-22.8l-.09-.27c-.13-.36-.37-1.02-.53-1.66,4.62,2.34,8.73,4.09,14.03,4.29,2.76.09,4.73.25,7.23.46h.13c.37.03.72.05,1.04.05h.01c3.25.07,5.7-.62,8.29-1.36,1.2-.33,2.42-.69,3.79-.97,1.2-.25,2.03-.01,3.18.33.43.13.85.25,1.36.37l.65.12c3.03.54,5.69.4,8.26.25,3.69-.21,7.19-.41,11.33,1.61l.21.11c3.06,1.54,4.86,3.83,4.93,6.26.07,2.34-1.47,4.54-4.33,6.19ZM617.44,495.24c-2.91,6.36-10.38,11.36-15.38,13.66l-.2.09c-.08.04-.16.08-.33.16-4.26,1.85-8.64,2.63-13.56,2.36.39-.28.74-.53,1.02-.73.65-.47,1.18-.85,1.41-1.04.29-.25.61-.54.84-.78,3.24-2.96,6.14-6.7,8.41-10.8,1.98-3.59,3.33-7.21,4.04-10.77.03-.15.05-.29.08-.44.15-.78.27-1.57.35-2.34.23-2.17.17-4.26-.15-6.26-.12-.77-.32-1.43-.5-2.02-.45-1.43-.6-2.06.09-3.09,1.24-1.83,4.49-4.45,6.24-4.7,1.78-.25,3.14.19,4.15,1.33,2.02,2.28,2.21,6.87,1.37,10.02-.08.28-.27.73-.45,1.22-.25.65-.53,1.38-.72,1.99-.16.61-.21,1.06-.09,1.51.01.03.01.07.03.09.33.92.9,1.36,1.33,1.55.94.44,1.94.16,2.67-.09,1.06,3.21.66,6.28-.62,9.07Z"/>
</svg>