<svg xmlns="http://www.w3.org/2000/svg" id="Layer_1" version="1.1" viewBox="100.8 437.2 879.6 206"><defs><style>.st0{fill:#5d3999}</style></defs><path d="M209.3 483.2h-1.8v1.7h.3l1.5.1zm0 0h-1.8v1.7h.3l1.5.1zm0 0h-1.5a5 5 0 0 1-.3 1.7h.3l1.6.1zm0 0h-1.5a5 5 0 0 1-.3 1.7h.3l1.6.1zm0 0h-1.5a5 5 0 0 1-.3 1.7h.3l1.6.1zm0 0h-1.5a5 5 0 0 1-.3 1.7h.3l1.6.1zm0 0h-1.5a5 5 0 0 1-.3 1.7h.3l1.6.1zm0 0h-1.5a5 5 0 0 1-.3 1.7h.3l1.6.1zm9 1.1c-.5.2-1.3.4-2 .1a2 2 0 0 1-1-1.2h-3.5v2.4a10 10 0 0 1 6 5.6 9 9 0 0 0 .5-6.9m-9-1.1h-1.5a5 5 0 0 1-.3 1.7h.3l1.6.1zm9 1.1c-.5.2-1.3.4-2 .1a2 2 0 0 1-1-1.2h-3.5v2.4a10 10 0 0 1 6 5.6 9 9 0 0 0 .5-6.9m0 0c-.5.2-1.3.4-2 .1a2 2 0 0 1-1-1.2h-3.5v2.4a10 10 0 0 1 6 5.6 9 9 0 0 0 .5-6.9m27.6.6h.3v-1.7H220c1.4 3.7.7 7.3-1.3 10.5.4 1.3.6 2.7.6 4.3v36.5c-.7 1-1.7 1.9-3 2.5-5.5 2.6-15.7.9-24.9-.7l-5.4-.9-1.1-.2c-.7.5-1.2 1-1.6 1-3.6 2.2-7.2 3-10.9 5.2a286 286 0 0 0-9.4 5.2l-.4.3-3.5 2a52.9 52.9 0 0 0-14 21.6v15.8c0 3.8-1 7-2.9 9.3a10.6 10.6 0 0 1-7.8 3.7h-1v1.8H172v-1.8h-.3c-6.9 0-11.5-5-11.5-13v-36.5a6 6 0 0 1 2.5-2.6l.4-.2c4-2 10.8-1.4 17.9-.3l6 1c5.6 1 10.9 2 14.7 2 8 0 13.8-4.5 17.5-11.4v48c0 8-4.5 13-11.5 13h-.3v1.8h38.7v-1.8h-.3c-6.9 0-11.5-5-11.5-13V498c0-8 4.6-13 11.5-13Zm-28 6.3a9 9 0 0 0 .4-6.9c-.5.2-1.3.4-2 .1a2 2 0 0 1-1-1.2h-3.5v2.4a10 10 0 0 1 6 5.6Zm.4-6.9c-.5.2-1.3.4-2 .1a2 2 0 0 1-1-1.2h-3.5v2.4a10 10 0 0 1 6 5.6 9 9 0 0 0 .5-6.9m-9-1.1h-1.5a5 5 0 0 1-.3 1.7h.3l1.6.1zm0 0h-1.5a5 5 0 0 1-.3 1.7h.3l1.6.1zm0 0h-1.5a5 5 0 0 1-.3 1.7h.3l1.6.1zm0 0h-1.5a5 5 0 0 1-.3 1.7h.3l1.6.1zm0 0h-1.5a5 5 0 0 1-.3 1.7h.3l1.6.1zm0 0h-1.8v1.7h.3l1.5.1zm0 0h-1.8v1.7h.3l1.5.1zm-56.2 0-.6 1a11.3 11.3 0 0 0-1.5 6.6 14.1 14.1 0 0 0 3 4v-2.4c.4-3.2 2-7.5 4.8-9.2zm0 0-.6 1a11.3 11.3 0 0 0-1.5 6.6 14.1 14.1 0 0 0 3 4v-2.4c.4-3.2 2-7.5 4.8-9.2zm0 0-.6 1a11.3 11.3 0 0 0-1.5 6.6 14.1 14.1 0 0 0 3 4v-2.4c.4-3.2 2-7.5 4.8-9.2zm5.8 0 .4.4-2 3.2c-1.1 2-1.6 4.7-1.3 7.2a13.3 13.3 0 0 0 3.3 7.5h1V498c0-8 4.6-13 11.5-13h.3v-1.8zm-.1 0h-5.7l-.6 1a11.3 11.3 0 0 0-1.5 6.6 14.1 14.1 0 0 0 3 4v-2.4c.4-3.2 2-7.5 4.8-9.2m-9.3 0c0 1.2 0 2.4.2 3.5.4-1.2 1-2.4 1.6-3.5zm3.6 0-.6 1a11.3 11.3 0 0 0-1.5 6.6 14.1 14.1 0 0 0 3 4v-2.4c.4-3.2 2-7.5 4.8-9.2zm0 0-.6 1a11.3 11.3 0 0 0-1.5 6.6 14.1 14.1 0 0 0 3 4v-2.4c.4-3.2 2-7.5 4.8-9.2zm-3.6 0c0 1.2 0 2.4.2 3.5.4-1.2 1-2.4 1.6-3.5zm3.6 0-.6 1a11.3 11.3 0 0 0-1.5 6.6 14.1 14.1 0 0 0 3 4v-2.4c.4-3.2 2-7.5 4.8-9.2zm-.2 18.1c0-.2-1.7-2.2-1.9-2.6-.4-.6-.7-1.6-1.2-2l-1.2-1.3c-1.8-1.8-3.2-3-4.5-5.4a21 21 0 0 1-.6-1.1c-.3-.5-.6-2-.9-2.3-.6-.6-2.1-1.2-2.9-1.8l-2-1.6h-4.3v1.7h.3c6.7 0 11.5 5.1 11.5 13.1v5.5c2.5-1 5-1.9 7.7-2.2m-4.5-9.7c-.2-.6-.6-2-.9-2.3-.2-.3-.7-.6-1.2-.9a14.5 14.5 0 0 0 2.1 3.2m-1.8-8.4h-2l.3 1 1.7 1.4c.4-.8.3-1.6 0-2.4m103 33.6c15 0 24.8 8.8 24.8 21.8v40.8c0 12 4 20 9.9 20v1.7c-15 0-25-8.8-25-21.7v-40.8c0-12-3.8-20-9.7-20zm17.3-42c4.5 0 7.5 3 7.5 7.6s-3 7.5-7.5 7.5-7.6-3-7.6-7.5 3-7.7 7.6-7.7Z" class="st0"/><path d="M275.5 641.6c12.6 0 20.7-13.2 20.7-33.5v-69.5c0-12-3.8-20-9.7-20v-1.8c15 0 24.9 8.8 24.9 21.7V608c0 21.2-14.3 35-35.9 35v-1.5ZM304 474.7c4.5 0 7.5 3 7.5 7.7s-3 7.5-7.5 7.5-7.7-3-7.7-7.5 3-7.7 7.7-7.7m43.6 56.6c-8.2 0-12.8-6.7-12.8-16.8h1.6c0 2.7 2.4 4.6 7 4.6 8.3 0 9.6-6.2 24-6.2 8.3 0 17.4 2.2 22.8 9 2.5 3.2 2.6 6.5 4 10 .7 1.6.2 1.2 1.9 1.6 1.5.3 3.4 0 5 0a30.5 30.5 0 0 0 22.9-8.7l-.2 8.3c0 1.2 0 2.6-.8 3.6-.7 1.2-2.2 1.8-3.6 1.8s-2.9-.2-4.3-.4c-5.7-.8-11.6.4-16.6 3.2-4.2 2.4-4.6 4.7-4.2 9.2.6 8.8.1 17.8.1 26.7 0 11.9 3.8 19.9 9.7 19.9v1.7c-12.4 0-21.3-5.9-24-15.3-2.7 10.7-12 17.6-26.3 17.6-17.7 0-29.7-10.6-29.7-25.7 0-20.6 22-34.1 55.2-34.1v-6.7c0-12-4.6-20-12.6-20-11.3 0-6.5 16.7-19.1 16.7m-8.3 43.3c0 13.4 8.1 23.1 20.2 23.1s19.8-9.6 19.8-21.2v-33c-24 0-40 12.1-40 31.1" class="st0"/><path d="M398.9 474.7c15 0 24.8 8.8 24.8 21.7v32.2c3.5-8.3 11.5-13.4 23-13.4 20 0 33.8 16 33.8 38.9a46 46 0 0 1-46.9 47c-15 0-25-8.8-25-21.7v-83c0-12-3.8-20-9.7-20zm66.4 79.2c0-21-9.5-35.4-23.4-35.4-10.8 0-18.2 8.5-18.2 19.5v41.4c0 12 4 20 10 20 17.3 0 31.6-19.3 31.6-45.5m84.6-68.9v101.3c0 8 4.4 13 11.3 13h.5v1.8h-39v-1.7h.6c6.6 0 11.3-5.1 11.3-13.1V484.9h-13c-11.3 0-22 10.5-24.6 24.4l-.2.8H495l5.1-27h84.2l5 27h-1.7l-.1-.8c-2.6-13.9-13.4-24.4-24.7-24.4h-13Zm42.5-10.3c15 0 24.9 8.8 24.9 21.7v33.3c3.5-9 12.6-14.5 24.8-14.5 15.6 0 25.7 9.4 25.7 23.4v40.8c0 12 4 20 9.9 20v1.7c-15 0-25-8.8-25-21.7v-40.8c0-12-6.4-20-17-20s-18.4 9.4-18.4 20.2v47.5c0 8 4.6 13 11.4 13h.4v1.8h-38.8v-1.7h.4c6.8 0 11.4-5.1 11.4-13.1v-89.9c0-12-3.8-20-9.7-20zm92.4 42.1c15 0 24.3 9 24.3 22.1v8.9a64 64 0 0 1 23.6-43.1c16.3-11 32.5-14 47.7-11.8 2.8.5 5.7 1.1 7.9 2.9s3.4 5 2 7.5c-1 2.2-3.8 3.2-6.2 3s-4.9-.7-7.2-1.5a41.4 41.4 0 0 0-47.3 12.2c-8 9-14 23.9-17.7 35.2-1.7 5.2-2 8-2.2 14.3-.2 5.8 0 13.9 0 19.8 0 8 4.6 13 11.5 13h.3v1.8h-38.7v-1.8h.3c6.8 0 11.5-5 11.5-13v-47.7c0-12-3.9-20-9.8-20z" class="st0"/><path d="M767.4 515.5c24.2 0 40.3 17.5 40.3 43.8s-16 43.8-40.3 43.8-40.5-17.5-40.5-43.8 16.1-43.8 40.5-43.8m0 85.9c15.1 0 25.2-17 25.2-42.1s-10-42.2-25.2-42.2-25.3 16.8-25.3 42.2 10.2 42 25.3 42ZM815 517c12.5 0 21.4 6 24.1 15.5 2.7-10.5 12.3-17 25.7-17 15.6 0 25.6 9.4 25.6 23.4v40.8c0 12 4 19.9 10 19.9v1.7c-15 0-25.1-8.7-25.1-21.6v-40.8c0-12-6.4-20.1-16.9-20.1S840 528.2 840 539v47.5c0 8 4.6 13.1 11.5 13.1h.3v1.8H813v-1.8h.3c6.8 0 11.5-5.1 11.5-13v-47.7c0-12-3.8-20.1-9.7-20.1V517Zm163.6 24.4c0 25.2-35 38.7-56.3 19 1.4 22 13 35.8 31 35.8 13.2 0 21.3-7.1 25.4-18.1l1.8.5c-5.6 14.6-16.4 24.5-34.3 24.5-24 0-39.2-17.7-39.2-43.8s15.2-43.8 39.5-43.8c19.2 0 32 10.5 32 26Zm-12.3-2.7c0-13-7.2-21.7-18.8-21.7-16.3 0-25.3 17-25.3 38.6v2c19.2 19.2 44.1 5.2 44.1-18.9m-779.9-4.8-.4 1.5c-.4 1.7-.8 3.4-1.5 5 0 .4-.2.6-.3 1-.3.9-.8 1.8-1.3 2.7a12 12 0 0 1-1.8 2.6c-7.1-1.1-14-1.7-17.9.3l-.5.3a6 6 0 0 0-2.4 2.5v10.7a49.5 49.5 0 0 0-9.2 6.8c-2 1.8-4.2 3.8-6 6-1 1.3-1.9 2.7-2.5 4.1-1.8 3.6-3 7.6-4.1 11.5l-2.2 7c-.4 1.2-1 2.6-2 3.4a2.4 2.4 0 0 1-2 .5 6 6 0 0 1-4-2.5c-.2-.5-.4-1-.3-1.6l.3-1.5.8-1.5c2.4-3.8 5-7.5 6.9-11.6 1-2.5 1.6-5 2.3-7.5 2.3-8.5 8.7-21.9 15.9-27.3 2.1-1.6 4-2.3 6.6-3.7l3.7-2.1 3-1.7c3.6-2.3 7.3-3 10.8-5.2 1.5-.7 5.4-4.3 7.4-4.3h.4l.6.6c.3.8.1 2.4-.3 4m-25.7-29.4c-.1 1-1.5 3.3-2.6 5.1l-.2.2-1.2 1.8a60 60 0 0 0-7.9 12.7c-4.2 10.2-8.7 20.3-12.5 30.6a173 173 0 0 0-8.2 31c-.3 2.6-.4 6-1.2 8-1.6 3.7-4.9 1.4-5.4-1.8s-.3-6.6 0-9.7c.2-2.5.8-4.7 1.2-7l.6-5L128 531c2.7-5.5 5.5-3.5 1.2 18.3-1.4 7-3.3 14.1-4.2 21.2l-.4 5c0 1.1 0 2 .6 2.1.7-.8.8-2 1.2-3.2 2.3-10.4 5.8-21 10-31.2 2.7-7 5.7-13.7 8.9-20.2 3-5.5 4.4-9.2 7.5-14.2l1.2-1.9.3-.4.4-.4a5 5 0 0 1 2.3-1.6l1.2.1c.8.3 1.2 1.2 1 2.3z" class="st0"/><path d="M121.7 573.5c-1.5 1-2.4-5.4-2.7-5.8-1.2-4.1-5.1-8.2-6-12.3-.8-3 .5-5.9.7-9.1a15 15 0 0 0-2.8-10.7c-2-2.2-5.2-4.4-6.8-6.7-1.6-2-2.4-4.1-2.8-6.2a13 13 0 0 1 2.4-11.3c.8-1.2 2.2-3.2 3.4-.5a47 47 0 0 0 6.4 11.5c2 2.6 4.9 5.3 6.2 8a13 13 0 0 1 1.2 5c.2 2.5-.2 5-.4 7.5-.4 5.8.4 11.5 1.2 17.1.6 4.3 2.3 9.8 0 13.5m33.2-70-1.5 1.8zm-.3-.1h-.2zm-.2 0h-.1l-1 .2 1-.1h.1Zm30.2-38.4c-.4-.3-.6-1.2-1.1-1.7-3.4-3-9.2-2.6-12.6 0-1.6 1.3-.7 1.5-.5 3.1s-.1 3-.6 4.4a12 12 0 0 1 6.2 6.2c.3.8.3 1.8.8 2.5 2-2.4 4-3.8 7-4.7 2.6-.8 4.4 0 5.2-3.3.5-2.2-.9-5.2-2.8-6.4-.6-.3-1.1.2-1.6-.1m19.7 18.4a21.2 21.2 0 0 1-1.6 5.8l-.6 1.3c-1.9 3.7-4.7 7-8 9.6a24 24 0 0 1-10.4 4.9c-.4 0-3.3.5-3.3.2 1-1 2.3-1.7 3.4-2.7a31.6 31.6 0 0 0 6.6-9c.5-1 1-1.9-.2-2.4-1.2 2.4-2.9 5-4.9 7.2-2 2.1-4.1 4-6.6 5.1a11.6 11.6 0 0 1-11.4-.5c1.5-1.5 3.3-2.5 4.7-4.2a18 18 0 0 0 1.8-2.7c1.7-2.7 3-6.1 3.4-8.9.6-3.5-.5-4 2.5-7 2.7-2.7 8.7-4.6 12.2-2.9 1.5.8 3 4.6 4.3 2 1-2 .4-2.9 2.6-4.6 4.8-3.7 6 5.8 5.6 8.8Z" class="st0"/><path d="M193.3 457.4c-.6-.2-1.8-.6-2.3 0-1.1 1.2 0 3 .2 4.5.1 1.6-.6 3.6-.4 4.7 0 .8.7 1.8.8 2.7a9 9 0 0 1-.8 4.8 8 8 0 0 1 3.7 2c1-2.2 2.6-3.7 4.7-4.6-.1-4.9-.7-11.9-5.8-14ZM174.7 485c-.2 3.8-1.6 7.6-3.8 10.7-2.6 3.7-6.4 6.3-10.6 5.9a8.6 8.6 0 0 1-2.6-.6 9 9 0 0 1-3.3-2.3 11.8 11.8 0 0 1-2.7-4.5 13.7 13.7 0 0 1-.7-3.4c-.1-2.4.3-4.7 1.5-6.7l.6-1 1.3-2.1-.5-.5a8 8 0 0 0-2.6 2.7 15.4 15.4 0 0 0-2.2 6.5v1.3l-.1 1.2-.6-.6-.7-1a14.5 14.5 0 0 1-3-7.4 23.2 23.2 0 0 1 7-18.8c3.7-3.5 9.2-5.4 13.7-2 1.8 1.4 3.1 4.7 2.3 7-.3.7-.8 1.2-1 1.9-.5 1.2 1.7 1.6 2.4 2 4.4 2.3 6 7 5.6 11.8Z" class="st0"/><path d="M159.3 457.5c1.1-1.3 3.5-5.4 3.3-7.2-.4-4-6.2-.8-8 .4-4.9 3.2-9.8 9-11.4 14.6-.7 2.6-1.1 6.2-.5 8.8 2.4-7 6.7-13.1 14-15.6.8-.3 1.9-.1 2.6-1m53.1 56.4c0 1.7-1.1 3.4-3.3 4.6a7.7 7.7 0 0 1-4.6 1l-1-.5c-.8-.4-1.4-.7-2.1-.8a2 2 0 0 0-2.1 1.1c-.5 1.1 0 2 .4 2.5.4.6.5.7.3 1.1-.2.7-.6 1.3-1.1 1.7-2.6 2.2-8 2-12.1 1.3a35.3 35.3 0 0 1-6.5-2.1c-8-3.6-13.2-9.2-16-17.2v-.2l-.4-1.2c3.4 1.7 6.5 3 10.5 3.2 2.1 0 3.6.2 5.5.4h.8c2.5 0 4.3-.5 6.3-1l2.8-.8c1-.1 1.6 0 2.4.3.4 0 .7.2 1 .3h.5c2.3.5 4.3.4 6.3.3 2.7-.2 5.4-.4 8.5 1.2h.2c2.3 1.2 3.6 3 3.7 4.8m5.4-22.7a24.5 24.5 0 0 1-11.5 10.3h-.2l-.2.1a22 22 0 0 1-10.2 1.8l.7-.5a27 27 0 0 0 1.7-1.4 32.2 32.2 0 0 0 9.4-16.2v-2.1h.3a18 18 0 0 0-.5-6.3c-.3-1-.4-1.5 0-2.3 1-1.4 3.5-3.3 4.8-3.5s2.3.1 3.1 1c1.5 1.7 1.7 5.1 1 7.5l-.3 1-.5 1.4c-.2.5-.2.8-.1 1.2.3.7.7 1 1 1.2.7.3 1.5.1 2 0a9 9 0 0 1-.5 6.8" class="st0"/><path d="M207.5 483.2v1.7a5 5 0 0 0 .3-1.7zm0 0v1.7a5 5 0 0 0 .3-1.7zm0 0v1.7a5 5 0 0 0 .3-1.7zm0 0v1.7a5 5 0 0 0 .3-1.7zm0 0v1.7a5 5 0 0 0 .3-1.7zm0 0v1.7a5 5 0 0 0 .3-1.7zm0 0v1.7a5 5 0 0 0 .3-1.7zm0 0v1.7a5 5 0 0 0 .3-1.7zm0 0v1.7a5 5 0 0 0 .3-1.7zm0 0v1.7a5 5 0 0 0 .3-1.7zm-10.7-31.3c-.4-.2-.5-.7-.8-1-.6-.4-1.5-.7-2-1.2-.6-.8 0-2.5-1.5-3.7a21.6 21.6 0 0 0-8.5-2.7c-3.2-.1-6.5 1.2-8.7 3.5l2.1 1.5c5-1 9.4 3 11.8 7 1.3-.2 2-.9 3.4-.7 4.7.6 7.6 5.7 8.5 9.8.2 1 .6 6.4.8 6.7.6.8 2.6 1.8 3.5.7 2.8-3.3 1.6-9.6.3-13.4-1-2.9-2.6-5.5-5.8-6.3-.9-.2-2.6.1-3-.2Zm-58.1 28.7c1 .8 2 1.4 3 2.3.8-1.7-.5-3.4-1-5a24.6 24.6 0 0 1 1.4-16.9c.8-1.5 3-4 3.3-5.3.3-.8.3-6.2 0-7.2-1.3-9-8.3-7-12.4-1.2-7.8 11-4 25.1 5.7 33.3m10.8-31.9c-.5 1-1.2 2.6-.9 3.7 2.3-2.8 9.7-7.6 13.3-6.6 1 .3 2 1.3 2.7 1.4.2 0 3.1-1.2 4-1.3h3.5c.3-.2 2.6-2.2 2.8-2.6.6-1-1-3.6-2-4.3-2.5-2-7.2-2-10.3-1.5-5.6 1-10.7 6.2-13.1 11.2m-24.7 68.7" class="st0"/><path d="M167.2 449c-2.4 1-1.6 1.2-2.1 3.2-.6 2.3-2 4.2-3.3 6 2 .5 3.5 1 5.2 2.3.5.3 1 1.3 1.6 1.3 4.2-3 9.3-4.3 14.1-2 2 1 3.7 2.5 5.5 3.6.6-.1.2-2.9.1-3.4-.9-4.1-5.4-9.8-10-9.3-.5 0-2 .6-2.2.5-.5-.1-.9-1.2-1.4-1.7a8.6 8.6 0 0 0-7.5-.6Zm-14.3 52.3c-2.7.3-5.2 1.3-7.7 2.2a45 45 0 0 1-4.7 1.5 16 16 0 0 1-4.2.5c-3.6 0-8.1-1.5-11-3.5-1.6-1-3.8-3.3-5.4-5.8-1.2-1.8-2-3.8-2-5.5 0-.7.1-1.3.4-1.9.4-.6 1.6-1.5 1.4-2.3 0-.2-.6-.9-1.2-1.7l-2.4-3.2c-3.3-6.4 1.5-14.3 9-10.6 4.2 2 4.4 3.2 7 6.4a49.5 49.5 0 0 0 7.6 7.5c.8.5 2.3 1.1 2.9 1.7.3.3.6 1.8.9 2.3l.6 1c1.3 2.5 2.7 3.7 4.5 5.5l1.2 1.2c.5.5.8 1.6 1.2 2.1.3.4 2 2.4 1.9 2.6" class="st0"/></svg>