<svg xmlns="http://www.w3.org/2000/svg" id="Layer_1" version="1.1" viewBox="0 0 1080 1080"><defs><style>.st0{fill:#260e4c}</style></defs><path d="M459.29 440.33h-1.81v1.76h.32c.54 0 1.05.03 1.56.09.01-.55-.01-1.19-.07-1.85m0 0h-1.81v1.76h.32c.54 0 1.05.03 1.56.09.01-.55-.01-1.19-.07-1.85m0 0h-1.47c-.06.58-.15 1.17-.26 1.76h.24c.54 0 1.05.03 1.56.09.01-.55-.01-1.19-.07-1.85m0 0h-1.47c-.06.58-.15 1.17-.26 1.76h.24c.54 0 1.05.03 1.56.09.01-.55-.01-1.19-.07-1.85m0 0h-1.47c-.06.58-.15 1.17-.26 1.76h.24c.54 0 1.05.03 1.56.09.01-.55-.01-1.19-.07-1.85m0 0h-1.47c-.06.58-.15 1.17-.26 1.76h.24c.54 0 1.05.03 1.56.09.01-.55-.01-1.19-.07-1.85m0 0h-1.47c-.06.58-.15 1.17-.26 1.76h.24c.54 0 1.05.03 1.56.09.01-.55-.01-1.19-.07-1.85m0 0h-1.47c-.06.58-.15 1.17-.26 1.76h.24c.54 0 1.05.03 1.56.09.01-.55-.01-1.19-.07-1.85m9.04 1.17c-.55.19-1.3.4-2.01.07-.32-.15-.75-.48-1-1.17-.01-.02-.01-.05-.02-.07h-3.47c.03.66.02 1.33-.03 2v.03l-.03.38c2.7.94 4.81 2.87 6.09 5.59.97-2.1 1.27-4.41.47-6.83m-9.04-1.17h-1.47c-.06.58-.15 1.17-.26 1.76h.24c.54 0 1.05.03 1.56.09.01-.55-.01-1.19-.07-1.85m9.04 1.17c-.55.19-1.3.4-2.01.07-.32-.15-.75-.48-1-1.17-.01-.02-.01-.05-.02-.07h-3.47c.03.66.02 1.33-.03 2v.03l-.03.38c2.7.94 4.81 2.87 6.09 5.59.97-2.1 1.27-4.41.47-6.83m0 0c-.55.19-1.3.4-2.01.07-.32-.15-.75-.48-1-1.17-.01-.02-.01-.05-.02-.07h-3.47c.03.66.02 1.33-.03 2v.03l-.03.38c2.7.94 4.81 2.87 6.09 5.59.97-2.1 1.27-4.41.47-6.83m27.57.59h.32v-1.76h-26.19c1.43 3.68.72 7.28-1.27 10.5.34 1.32.52 2.77.52 4.33v36.5c-.7 1.07-1.7 1.88-2.95 2.46-5.5 2.6-15.72.93-24.92-.65-1.84-.33-3.65-.64-5.37-.91-.39-.06-.77-.12-1.14-.17-.66.49-1.23.88-1.63 1.06-3.57 2.12-7.2 2.91-10.85 5.12-.96.54-1.96 1.11-2.98 1.7-1.25.74-2.51 1.47-3.67 2.11-1.01.55-1.89 1-2.73 1.42-.16.08-.32.16-.48.25-1.18.61-2.27 1.2-3.45 2.07-5.7 4.28-10.87 13.6-13.93 21.53v15.8c0 3.85-1.07 7.02-2.96 9.28-1.9 2.26-4.6 3.6-7.85 3.75-.22.01-.43.02-.65.02h-.32v1.76h38.72v-1.76h-.32c-6.85 0-11.47-5.09-11.47-13.06v-36.5c.53-1.08 1.37-1.91 2.43-2.54.15-.08.31-.17.47-.25 3.98-2 10.78-1.42 17.87-.28 2.03.32 4.08.69 6.1 1.06 5.53 1.02 10.8 2.01 14.56 2.01 7.97 0 13.86-4.62 17.53-11.47v47.97c0 7.97-4.47 13.06-11.48 13.06h-.32v1.76h38.74v-1.76h-.32c-6.86 0-11.49-5.09-11.49-13.06v-88.29c0-7.97 4.63-13.07 11.49-13.07Zm-28.04 6.24c.97-2.1 1.27-4.41.47-6.83-.55.19-1.3.4-2.01.07-.32-.15-.75-.48-1-1.17-.01-.02-.01-.05-.02-.07h-3.47c.03.66.02 1.33-.03 2v.03l-.03.38c2.7.94 4.81 2.87 6.09 5.59m.47-6.83c-.55.19-1.3.4-2.01.07-.32-.15-.75-.48-1-1.17-.01-.02-.01-.05-.02-.07h-3.47c.03.66.02 1.33-.03 2v.03l-.03.38c2.7.94 4.81 2.87 6.09 5.59.97-2.1 1.27-4.41.47-6.83m-9.04-1.17h-1.47c-.06.58-.15 1.17-.26 1.76h.24c.54 0 1.05.03 1.56.09.01-.55-.01-1.19-.07-1.85m0 0h-1.47c-.06.58-.15 1.17-.26 1.76h.24c.54 0 1.05.03 1.56.09.01-.55-.01-1.19-.07-1.85m0 0h-1.47c-.06.58-.15 1.17-.26 1.76h.24c.54 0 1.05.03 1.56.09.01-.55-.01-1.19-.07-1.85m0 0h-1.47c-.06.58-.15 1.17-.26 1.76h.24c.54 0 1.05.03 1.56.09.01-.55-.01-1.19-.07-1.85m0 0h-1.47c-.06.58-.15 1.17-.26 1.76h.24c.54 0 1.05.03 1.56.09.01-.55-.01-1.19-.07-1.85m0 0h-1.81v1.76h.32c.54 0 1.05.03 1.56.09.01-.55-.01-1.19-.07-1.85m0 0h-1.81v1.76h.32c.54 0 1.05.03 1.56.09.01-.55-.01-1.19-.07-1.85m-56.22 0-.59.98c-1.14 1.91-1.61 4.26-1.45 6.61.43.91.95 1.77 1.58 2.59.4.53.83 1.02 1.31 1.49.09-.01.09-.6.09-1.2 0-.55-.01-1.08.02-1.24.37-3.2 1.98-7.52 4.78-9.23zm0 0-.59.98c-1.14 1.91-1.61 4.26-1.45 6.61.43.91.95 1.77 1.58 2.59.4.53.83 1.02 1.31 1.49.09-.01.09-.6.09-1.2 0-.55-.01-1.08.02-1.24.37-3.2 1.98-7.52 4.78-9.23zm0 0-.59.98c-1.14 1.91-1.61 4.26-1.45 6.61.43.91.95 1.77 1.58 2.59.4.53.83 1.02 1.31 1.49.09-.01.09-.6.09-1.2 0-.55-.01-1.08.02-1.24.37-3.2 1.98-7.52 4.78-9.23zm5.82 0 .43.46-1.92 3.18c-1.24 2.08-1.68 4.67-1.4 7.23.1.95.32 1.91.62 2.82.56 1.73 1.48 3.33 2.72 4.59.33.07.66.11.98.14v-3.59c0-7.97 4.62-13.07 11.47-13.07h.32v-1.76zm-.08 0h-5.74l-.59.98c-1.14 1.91-1.61 4.26-1.45 6.61.43.91.95 1.77 1.58 2.59.4.53.83 1.02 1.31 1.49.09-.01.09-.6.09-1.2 0-.55-.01-1.08.02-1.24.37-3.2 1.98-7.52 4.78-9.23m-9.32 0q-.045 1.8.27 3.54c.38-1.23.91-2.46 1.58-3.54zm3.58 0-.59.98c-1.14 1.91-1.61 4.26-1.45 6.61.43.91.95 1.77 1.58 2.59.4.53.83 1.02 1.31 1.49.09-.01.09-.6.09-1.2 0-.55-.01-1.08.02-1.24.37-3.2 1.98-7.52 4.78-9.23zm0 0-.59.98c-1.14 1.91-1.61 4.26-1.45 6.61.43.91.95 1.77 1.58 2.59.4.53.83 1.02 1.31 1.49.09-.01.09-.6.09-1.2 0-.55-.01-1.08.02-1.24.37-3.2 1.98-7.52 4.78-9.23zm-3.58 0q-.045 1.8.27 3.54c.38-1.23.91-2.46 1.58-3.54zm3.58 0-.59.98c-1.14 1.91-1.61 4.26-1.45 6.61.43.91.95 1.77 1.58 2.59.4.53.83 1.02 1.31 1.49.09-.01.09-.6.09-1.2 0-.55-.01-1.08.02-1.24.37-3.2 1.98-7.52 4.78-9.23zm-.19 18.13c.11-.17-1.62-2.23-1.87-2.6-.38-.55-.73-1.61-1.18-2.06-.45-.46-.87-.88-1.26-1.27-1.8-1.76-3.12-3.02-4.48-5.41-.2-.34-.39-.69-.58-1.06-.26-.52-.63-1.99-.9-2.27-.57-.62-2.11-1.22-2.88-1.78-.73-.52-1.43-1.08-2.11-1.68h-4.23v1.76h.32c6.69 0 11.47 5.1 11.47 13.07v5.47c2.52-.92 5.05-1.87 7.7-2.17m-4.45-9.74c-.26-.51-.63-2-.89-2.27-.27-.29-.75-.58-1.27-.86.4.79.87 1.54 1.42 2.26.23.31.48.62.76.91-.01 0-.01-.03-.02-.04m-1.79-8.39h-1.94c.04.34.09.69.16 1.03.6.43 1.2.85 1.73 1.37.38-.8.3-1.6.05-2.4m102.92 33.63c14.98 0 24.86 8.76 24.86 21.83v40.8c0 11.95 3.98 19.92 9.88 19.92v1.75c-14.98 0-25.02-8.76-25.02-21.67v-40.8c0-11.95-3.82-20.08-9.72-20.08zm17.37-42.07c4.46 0 7.49 3.03 7.49 7.65s-3.03 7.49-7.49 7.49-7.65-3.03-7.65-7.49 3.03-7.65 7.65-7.65" class="st0"/><path d="M525.53 598.75c12.59 0 20.72-13.23 20.72-33.47V495.8c0-11.95-3.82-20.08-9.72-20.08v-1.75c14.98 0 24.86 8.76 24.86 21.67v69.64c0 21.2-14.34 35.06-35.86 35.06zm28.37-166.86c4.46 0 7.49 3.03 7.49 7.65s-3.03 7.49-7.49 7.49-7.65-3.03-7.65-7.49 3.03-7.65 7.65-7.65m43.67 56.52c-8.13 0-12.75-6.69-12.75-16.73h1.59c0 2.71 2.39 4.62 7.01 4.62 8.29 0 9.56-6.21 24.06-6.21 8.25 0 17.34 2.19 22.71 8.94 2.57 3.24 2.61 6.53 4.08 10.1.62 1.51.11 1.08 1.83 1.49 1.47.36 3.42.09 4.93.07 3.1-.05 6.21-.29 9.23-1.03 5.15-1.26 9.95-3.94 13.71-7.67l-.15 8.25c-.02 1.26-.07 2.59-.76 3.64-.79 1.19-2.27 1.74-3.69 1.82s-2.83-.24-4.24-.44c-5.67-.81-11.62.38-16.59 3.2-4.25 2.41-4.59 4.66-4.25 9.19.65 8.81.14 17.82.14 26.66 0 11.95 3.82 19.92 9.72 19.92v1.75c-12.43 0-21.36-5.9-24.06-15.3-2.71 10.68-11.95 17.53-26.3 17.53-17.69 0-29.64-10.52-29.64-25.66 0-20.56 21.99-34.1 55.14-34.1v-6.69c0-11.95-4.62-20.08-12.59-20.08-11.32 0-6.53 16.73-19.12 16.73Zm-8.29 43.35c0 13.39 8.13 23.11 20.24 23.11s19.76-9.56 19.76-21.19v-32.99c-24.06 0-40 12.11-40 31.08Z" class="st0"/><path d="M648.88 431.89c14.98 0 24.86 8.77 24.86 21.67v32.19c3.51-8.29 11.47-13.39 22.95-13.39 20.08 0 33.79 15.94 33.79 38.89 0 31.08-24.86 47.01-46.85 47.01-14.98 0-25.02-8.76-25.02-21.67v-83.03c0-11.95-3.82-19.92-9.72-19.92v-1.75Zm66.46 79.21c0-21.04-9.56-35.38-23.43-35.38-10.84 0-18.17 8.45-18.17 19.44v41.43c0 11.95 3.98 19.92 9.88 19.92 17.37 0 31.71-19.28 31.71-45.42Zm-321.9 83.06v78.79c0 6.19 3.47 10.16 8.8 10.16h.37v1.36h-30.23v-1.36h.37c5.2 0 8.79-3.96 8.79-10.16v-78.79h-10.03c-8.8 0-17.1 8.18-19.2 18.95l-.12.62h-1.36l3.96-20.94h65.41l3.96 20.94h-1.36l-.12-.62c-1.98-10.78-10.41-18.95-19.2-18.95h-10.03Zm33.08-7.93c11.64 0 19.33 6.81 19.33 16.85v25.89c2.72-6.94 9.79-11.27 19.32-11.27 12.14 0 19.94 7.31 19.94 18.21v31.71c0 9.29 3.1 15.49 7.68 15.49v1.36c-11.64 0-19.45-6.81-19.45-16.85v-31.71c0-9.29-4.95-15.61-13.13-15.61s-14.37 7.31-14.37 15.73v36.92c0 6.19 3.59 10.16 8.92 10.16h.25v1.36h-30.1v-1.36h.25c5.33 0 8.92-3.96 8.92-10.16v-69.87c0-9.29-2.97-15.48-7.56-15.48v-1.36Zm71.84 32.71c11.64 0 18.85 7.06 18.85 17.22l.07 6.88c.02-10.88 9.31-27.49 18.24-33.51 12.67-8.55 25.32-10.84 37.12-9.13 2.17.32 4.42.81 6.12 2.21s2.65 3.92 1.62 5.86c-.89 1.69-2.97 2.44-4.88 2.38s-3.76-.63-5.56-1.26c-15.7-5.52-28.19-.14-36.79 9.55-6.19 6.98-10.92 18.53-13.78 27.35-1.3 4.01-1.55 6.28-1.69 11.14-.14 4.49.01 10.76.01 15.34 0 6.19 3.59 10.16 8.92 10.16h.25v1.36h-30.1v-1.36h.25c5.33 0 8.92-3.96 8.92-10.16v-37.04c0-9.29-2.97-15.61-7.56-15.61v-1.36Z" class="st0"/><path d="M562.55 617.88c18.83 0 31.34 13.63 31.34 34.07s-12.51 34.07-31.34 34.07-31.46-13.63-31.46-34.07 12.51-34.07 31.46-34.07m0 66.78c11.77 0 19.57-13.13 19.57-32.7s-7.8-32.83-19.57-32.83-19.7 13.13-19.7 32.83 7.93 32.7 19.7 32.7m37.04-65.54c9.66 0 16.6 4.58 18.71 12.02 2.11-8.18 9.54-13.25 19.94-13.25 12.14 0 19.94 7.31 19.94 18.21v31.71c0 9.29 3.1 15.49 7.68 15.49v1.36c-11.64 0-19.45-6.81-19.45-16.85V636.1c0-9.29-4.95-15.61-13.13-15.61s-14.37 7.31-14.37 15.73v36.92c0 6.19 3.59 10.16 8.92 10.16h.25v1.36h-30.1v-1.36h.25c5.33 0 8.92-3.96 8.92-10.16V636.1c0-9.29-2.97-15.61-7.56-15.61v-1.36Zm127.1 18.96c0 19.57-27.25 30.1-43.73 14.74 1.12 17.1 10.03 27.87 24.16 27.87 10.16 0 16.48-5.57 19.7-14.12l1.36.37c-4.34 11.4-12.76 19.08-26.63 19.08-18.71 0-30.47-13.75-30.47-34.07s11.77-34.07 30.72-34.07c14.86 0 24.9 8.18 24.9 20.19Zm-9.54-2.11c0-10.16-5.57-16.85-14.62-16.85-12.64 0-19.7 13.13-19.7 29.98v1.49c14.99 14.99 34.31 4.09 34.31-14.62ZM436.44 491.02c-.14.52-.27 1.03-.4 1.54-.44 1.73-.88 3.41-1.5 5.07-.11.29-.21.57-.34.87-.34.95-.76 1.87-1.29 2.74-.52.93-1.13 1.81-1.82 2.64-7.09-1.14-13.89-1.72-17.87.28-.16.08-.32.17-.47.25-1.06.63-1.9 1.46-2.43 2.54v10.72c-.8.47-1.59.98-2.37 1.5a59 59 0 0 0-6.79 5.28c-2.06 1.82-4.22 3.85-5.98 6.03-1.06 1.32-1.97 2.69-2.62 4.09-1.79 3.63-2.97 7.57-4.09 11.49-.7 2.42-1.33 4.68-2.15 7.02-.38 1.19-1 2.63-1.96 3.41-.29.24-.61.41-.97.5-.32.09-.68.1-1.06.02-1.43-.24-3.18-1.2-3.96-2.53-.29-.5-.45-1.07-.39-1.66.02-.45.16-.93.36-1.43s.47-1 .78-1.52c2.4-3.81 5.08-7.49 6.87-11.62 0-.01.02-.03.02-.05 1.09-2.41 1.65-4.89 2.3-7.41 2.34-8.55 8.69-21.93 15.87-27.34 2.15-1.56 3.98-2.26 6.67-3.74 1.15-.64 2.42-1.37 3.66-2.1 1.03-.59 2.03-1.17 2.98-1.7 3.66-2.21 7.29-3 10.85-5.12 1.47-.68 5.39-4.33 7.36-4.33.17 0 .32.03.45.08.23.09.41.26.53.52v.05c.32.8.15 2.37-.24 3.91m-25.71-29.38c-.16 1.05-1.5 3.35-2.67 5.13-.03.06-.08.12-.11.17-.5.76-.95 1.4-1.24 1.79-2.64 3.44-3.52 4.63-5.67 8.36a52 52 0 0 0-2.2 4.32c-4.28 10.23-8.75 20.33-12.52 30.67-2.53 6.93-4.75 13.97-6.39 21.23-.78 3.27-1.39 6.33-1.79 9.75-.38 2.59-.47 6.02-1.25 8-1.62 3.66-4.86 1.44-5.34-1.81-.5-3.15-.34-6.59-.08-9.69.25-2.51.8-4.67 1.28-7.09l.59-4.98L378 488.2c2.71-5.59 5.54-3.58 1.18 18.26-1.41 7.04-3.3 14.11-4.13 21.23-.2 1.65-.34 3.29-.4 4.94.05 1.17.03 2.12.53 2.13.76-.78.87-2.04 1.21-3.18 2.34-10.4 5.83-20.95 9.93-31.2 2.77-6.93 5.82-13.72 8.97-20.22 3.04-5.53 4.45-9.25 7.49-14.19.38-.61.76-1.24 1.2-1.9.13-.15.25-.31.37-.45.13-.14.24-.28.36-.4.7-.77 1.44-1.3 2.32-1.52.42-.09.81-.06 1.13.07.82.28 1.26 1.16 1.09 2.32z" class="st0"/><path d="M371.66 530.67c-1.46 1.06-2.34-5.39-2.67-5.84-1.16-4.08-5.09-8.18-6.05-12.23-.76-3.1.53-5.91.81-9.16.12-3.44-.17-7.32-2.86-10.72-1.99-2.13-5.21-4.35-6.8-6.64-1.57-2.07-2.35-4.15-2.81-6.23-1.12-3.95-.08-7.81 2.4-11.31.78-1.15 2.19-3.21 3.47-.46 1.54 3.94 3.43 7.72 6.35 11.53 1.99 2.6 4.87 5.24 6.22 8 .81 1.64 1.13 3.3 1.22 4.9.13 2.54-.28 5.05-.42 7.58-.39 5.74.4 11.43 1.19 17.11.56 4.25 2.3 9.74-.03 13.46l-.02.02Zm33.23-70c-.5.61-1.01 1.21-1.51 1.82.5-.61 1-1.22 1.51-1.82m-.31-.13s-.1.02-.15.04c.05-.02.1-.03.15-.04m-.15.04c-.05.02-.11.03-.16.04-.31.04-.61.08-.92.13.31-.05.61-.1.92-.13.06 0 .11-.02.16-.04m30.16-38.45c-.37-.26-.58-1.22-1.09-1.66-3.37-2.96-9.15-2.6-12.58.05-1.64 1.26-.69 1.45-.48 3.08.2 1.54-.13 2.94-.6 4.4 2.82 1.51 4.9 3.19 6.13 6.18.33.82.32 1.77.88 2.5 1.91-2.4 4.04-3.85 6.95-4.74 2.6-.8 4.44.07 5.18-3.24.49-2.21-.84-5.26-2.77-6.42-.57-.35-1.15.19-1.62-.15m19.77 18.42a21 21 0 0 1-.78 3.49c-.25.79-.55 1.57-.89 2.35-.19.42-.39.84-.59 1.26-1.85 3.69-4.66 7.04-7.96 9.61-3.13 2.46-6.73 4.21-10.42 4.88-.42.08-3.29.53-3.36.22 1.09-.98 2.32-1.74 3.43-2.73 1.2-1.09 2.41-2.37 3.5-3.75 1.28-1.64 2.4-3.4 3.15-5.16.44-1.01 1.01-1.95-.26-2.49a31.2 31.2 0 0 1-4.86 7.24c-1.92 2.13-4.13 3.97-6.57 5.11-3.52 1.68-7.45 1.9-11.46-.5 1.54-1.51 3.29-2.57 4.7-4.27.26-.31.53-.65.79-1.01.36-.51.72-1.06 1.06-1.65 1.64-2.74 2.93-6.12 3.38-8.85.58-3.57-.5-4 2.49-7.04 2.66-2.68 8.66-4.63 12.23-2.88 1.51.76 2.9 4.58 4.24 1.96.98-1.93.44-2.85 2.62-4.55 4.83-3.77 5.98 5.8 5.58 8.75Z" class="st0"/><path d="M443.35 414.59c-.65-.28-1.83-.63-2.37-.03-1.09 1.22.11 3 .22 4.53.13 1.53-.6 3.53-.42 4.7.12.78.69 1.78.83 2.71.26 1.72-.23 3.14-.83 4.73 1.38.33 2.7.95 3.7 1.99 1.03-2.14 2.61-3.64 4.76-4.6-.13-4.83-.76-11.84-5.88-14.03Zm-18.62 27.66c-.25 3.71-1.63 7.55-3.78 10.59-2.62 3.74-6.39 6.28-10.63 5.91-.32-.03-.65-.07-.98-.14q-.45-.075-.9-.21c-.25-.07-.49-.15-.72-.25-1.3-.49-2.42-1.27-3.36-2.25-1.21-1.25-2.11-2.83-2.67-4.54a13.7 13.7 0 0 1-.66-3.44c-.16-2.35.31-4.7 1.45-6.61l.59-.98 1.32-2.21-.47-.49c-1.01.61-1.88 1.57-2.58 2.7-.67 1.08-1.2 2.31-1.58 3.54-.33 1.04-.55 2.08-.66 3.02-.02.16 0 .7 0 1.24 0 .61 0 1.2-.09 1.21-.19-.19-.38-.38-.55-.58-.28-.29-.53-.6-.76-.91-.55-.72-1.02-1.47-1.42-2.26-.68-1.33-1.14-2.76-1.41-4.23-.07-.34-.12-.69-.16-1.03-.83-6.73 2.16-14.23 7-18.78 3.68-3.45 9.24-5.37 13.67-1.97 1.85 1.42 3.13 4.66 2.33 6.92-.26.75-.83 1.31-1.06 1.94-.45 1.26 1.72 1.65 2.46 2.04 4.37 2.28 5.98 6.9 5.63 11.77Z" class="st0"/><path d="M409.3 414.69c1.13-1.33 3.49-5.45 3.32-7.22-.37-4.05-6.18-.81-7.96.36-4.92 3.25-9.81 8.94-11.42 14.65-.75 2.63-1.15 6.18-.57 8.83 2.45-6.96 6.77-13.18 13.95-15.67.89-.31 1.96-.11 2.68-.96Zm53.07 56.32c.05 1.76-1.11 3.42-3.26 4.66h-.01c-1.13.67-3.28 1.23-4.56.95-.27-.06-.7-.28-1.12-.49-.67-.35-1.36-.7-2.04-.78-.92-.13-1.68.29-2.09 1.14-.53 1.11.07 1.97.45 2.5.37.52.45.71.3 1.1-.22.66-.61 1.22-1.18 1.7-2.51 2.12-7.88 2.04-12.06 1.26-1.12-.21-2.21-.48-3.07-.78-1.26-.42-2.37-.86-3.41-1.33-7.96-3.55-13.19-9.16-15.98-17.16l-.07-.2c-.1-.27-.28-.77-.4-1.25 3.48 1.76 6.57 3.08 10.56 3.23 2.08.07 3.56.19 5.44.35h.1c.28.02.54.04.78.04h.01c2.45.05 4.29-.47 6.24-1.02.9-.25 1.82-.52 2.85-.73.9-.19 1.53 0 2.39.25.32.1.64.19 1.02.28l.49.09c2.28.41 4.28.3 6.22.19 2.78-.16 5.41-.31 8.53 1.21l.16.08c2.3 1.16 3.66 2.88 3.71 4.71m5.49-22.68c-2.19 4.79-7.81 8.55-11.58 10.28l-.15.07c-.06.03-.12.06-.25.12-3.21 1.39-6.5 1.98-10.21 1.78.29-.21.56-.4.77-.55.49-.35.89-.64 1.06-.78.22-.19.46-.41.63-.59 2.44-2.23 4.62-5.04 6.33-8.13 1.49-2.7 2.51-5.43 3.04-8.11l.06-.33h-.08v-1.76h.34c.17-1.63.13-3.21-.11-4.71-.09-.58-.24-1.08-.38-1.52-.34-1.08-.45-1.55.07-2.33.93-1.38 3.38-3.35 4.7-3.54 1.34-.19 2.36.14 3.12 1 1.52 1.72 1.66 5.17 1.03 7.54-.06.21-.2.55-.34.92-.19.49-.4 1.04-.54 1.5-.12.46-.16.8-.07 1.14.01.02.01.05.02.07.25.69.68 1.02 1 1.17.71.33 1.46.12 2.01-.07.8 2.42.5 4.73-.47 6.83" class="st0"/><path d="M457.48 440.33v1.76h.08c.11-.59.2-1.18.26-1.76zm0 0v1.76h.08c.11-.59.2-1.18.26-1.76zm0 0v1.76h.08c.11-.59.2-1.18.26-1.76zm0 0v1.76h.08c.11-.59.2-1.18.26-1.76zm0 0v1.76h.08c.11-.59.2-1.18.26-1.76zm0 0v1.76h.08c.11-.59.2-1.18.26-1.76zm0 0v1.76h.08c.11-.59.2-1.18.26-1.76zm0 0v1.76h.08c.11-.59.2-1.18.26-1.76zm0 0v1.76h.08c.11-.59.2-1.18.26-1.76zm0 0v1.76h.08c.11-.59.2-1.18.26-1.76zm-10.66-31.27c-.39-.24-.48-.68-.79-.92-.61-.47-1.5-.75-2-1.31-.65-.74 0-2.47-1.48-3.66-1.56-1.25-6.51-2.57-8.58-2.66-3.15-.15-6.49 1.2-8.66 3.43l2.1 1.49c5.01-.95 9.45 2.95 11.82 7.02 1.29-.23 2.02-.87 3.41-.68 4.62.63 7.54 5.69 8.45 9.84.22 1.02.63 6.33.82 6.61.57.88 2.63 1.84 3.53.77 2.82-3.36 1.56-9.62.27-13.4-.98-2.88-2.62-5.5-5.75-6.29-.93-.23-2.61.09-3.13-.24Zm-58.08 28.74c.94.8 2.04 1.41 2.92 2.26.81-1.69-.46-3.41-.91-4.99-1.49-5.33-1.17-11.89 1.34-16.89.76-1.51 2.92-4.09 3.34-5.28.28-.81.22-6.21.05-7.25-1.42-8.97-8.38-7-12.53-1.16-7.78 10.92-3.94 25.08 5.79 33.31m10.75-31.9c-.47.96-1.18 2.56-.88 3.62 2.27-2.75 9.74-7.6 13.32-6.55.91.27 2.05 1.31 2.7 1.36.21.02 3.11-1.15 3.99-1.27.86-.12 3.01.14 3.47-.03.37-.14 2.67-2.16 2.86-2.53.58-1.12-1-3.67-1.95-4.39-2.55-1.94-7.32-1.99-10.38-1.44-5.65 1.03-10.68 6.21-13.14 11.23Zm-24.68 68.63" class="st0"/><path d="M417.16 406.11c-2.39 1.02-1.61 1.28-2.1 3.26-.58 2.31-1.91 4.15-3.28 6.04 1.96.47 3.54 1.03 5.22 2.23.47.34 1.08 1.29 1.57 1.29 4.23-2.92 9.3-4.29 14.14-1.88 1.97.98 3.65 2.45 5.54 3.54.55-.15.17-2.9.05-3.42-.88-4.13-5.37-9.82-9.99-9.3-.51.05-1.95.58-2.25.5-.43-.13-.83-1.26-1.38-1.7-1.89-1.46-5.39-1.49-7.52-.57Zm-14.28 52.35c-2.65.3-5.18 1.25-7.7 2.17-1.56.57-3.11 1.13-4.7 1.52-1.36.34-2.76.55-4.21.52-3.6-.06-8.06-1.48-11.04-3.54-1.51-1.06-3.72-3.29-5.32-5.77-1.19-1.84-2.04-3.8-2.02-5.51.01-.68.15-1.31.46-1.89.32-.61 1.51-1.52 1.32-2.34-.03-.17-.56-.86-1.19-1.69-.89-1.14-2.01-2.55-2.33-3.2-3.34-6.35 1.46-14.27 8.97-10.59 4.14 2.05 4.39 3.26 7.03 6.44 1.67 2.01 3.47 4.01 5.47 5.75.68.6 1.38 1.16 2.11 1.68.77.56 2.31 1.16 2.88 1.78.27.28.64 1.75.9 2.27.19.37.38.72.58 1.06 1.36 2.39 2.68 3.65 4.48 5.41.39.39.81.81 1.26 1.27.45.45.8 1.51 1.18 2.06.25.37 1.98 2.43 1.87 2.6" class="st0"/></svg>